# xmcd
# 
# Track frame offsets:
#     150
#     6587
#     18530
#     37019
#     48397
#     62286
#     78972
#     88593
#     99933
#     116839
#     127676
# 
# Disc length: 1883
# 
# Revision: 0
# Processed by: cddbd v1.5.2PL0 Copyright (c) Steve Scherf et al.
# Submitted via: BonkEnc v1.0.15
# 
DISCID=8007590b
DTITLE=Jake Thomas - That's It
DYEAR=2010
DGENRE=Blues
TTITLE0=Turn Around
TTITLE1=Louisiana
TTITLE2=New Suit 
TTITLE3=Gracie 
TTITLE4=Money In The Bank
TTITLE5=Our Man In Majorca
TTITLE6=Buzzards
TTITLE7=Feet Are Hurtin
TTITLE8=Playin For Change
TTITLE9=October Sun
TTITLE10=Had Enough
EXTD=
EXTT0=
EXTT1=
EXTT2=
EXTT3=
EXTT4=
EXTT5=
EXTT6=
EXTT7=
EXTT8=
EXTT9=
EXTT10=
PLAYORDER=
